name baseline.mot
datacolumns 19
datarows 24
range 4.10165400000000 4.13998500000000
endheader
time	ground_force1_vx	ground_force1_vy	ground_force1_vz	ground_force1_px	ground_force1_py	ground_force1_pz	ground_force2_vx	ground_force2_vy	ground_force2_vz	ground_force2_px	ground_force2_py	ground_force2_pz	ground_torque1_x	ground_torque1_y	ground_torque1_z	ground_torque2_x	ground_torque2_y	ground_torque2_z	
4.10165400000000	-58.79100900000000	786.23392600000000	54.83236100000000	-0.02680100000000	0.00000000000000	0.09343700000000	0.00000000000000	0.00000000000000	0.00000000000000	0.00000000000000	0.00000000000000	0.00000000000000	0.00000000000000	9.87141200000000	0.00000000000000	0.00000000000000	0.00000000000000	0.00000000000000	
4.10332000000000	-59.76480900000000	785.64884700000005	54.96061100000000	-0.02808000000000	0.00000000000000	0.09342200000000	0.00000000000000	0.00000000000000	0.00000000000000	0.00000000000000	0.00000000000000	0.00000000000000	0.00000000000000	9.87737500000000	0.00000000000000	0.00000000000000	0.00000000000000	0.00000000000000	
4.10498300000000	-60.74141900000000	784.97820600000000	55.07334900000000	-0.02935900000000	0.00000000000000	0.09340700000000	0.00000000000000	0.00000000000000	0.00000000000000	0.00000000000000	0.00000000000000	0.00000000000000	0.00000000000000	9.88428900000000	0.00000000000000	0.00000000000000	0.00000000000000	0.00000000000000	
4.10665100000000	-61.72051000000000	784.21838900000000	55.16971300000000	-0.03063800000000	0.00000000000000	0.09339000000000	0.00000000000000	0.00000000000000	0.00000000000000	0.00000000000000	0.00000000000000	0.00000000000000	0.00000000000000	9.89236700000000	0.00000000000000	0.00000000000000	0.00000000000000	0.00000000000000	
4.10832200000000	-62.70170300000000	783.36567700000001	55.24886100000000	-0.03191600000000	0.00000000000000	0.09337300000000	0.00000000000000	0.00000000000000	0.00000000000000	0.00000000000000	0.00000000000000	0.00000000000000	0.00000000000000	9.90181800000000	0.00000000000000	0.00000000000000	0.00000000000000	0.00000000000000	
4.10998800000000	-63.68456600000000	782.41624400000001	55.30996200000000	-0.03319100000000	0.00000000000000	0.09335400000000	-1.34940400000000	3.14127300000000	0.97886700000000	0.00000000000000	0.00000000000000	0.00000000000000	0.00000000000000	9.91284500000000	0.00000000000000	0.00000000000000	0.15654500000000	0.00000000000000	
4.11165100000000	-64.66861299999999	781.36617100000001	55.35221000000000	-0.03446400000000	0.00000000000000	0.09333500000000	-2.11625000000000	6.58403600000000	1.66804700000000	0.00000000000000	0.00000000000000	0.00000000000000	0.00000000000000	9.92564700000000	0.00000000000000	0.00000000000000	0.28666400000000	0.00000000000000	
4.11332100000000	-65.65330100000000	780.21144700000002	55.37482000000000	-0.03573300000000	0.00000000000000	0.09331500000000	-2.97333900000000	10.81697600000000	2.46839900000000	0.00000000000000	0.00000000000000	0.00000000000000	0.00000000000000	9.94041400000000	0.00000000000000	0.00000000000000	0.44172600000000	0.00000000000000	
4.11498500000000	-66.63802900000000	778.94798300000002	55.37703300000000	-0.03699700000000	0.00000000000000	0.09329300000000	-3.89125700000000	15.81568600000000	3.36165800000000	0.00000000000000	0.00000000000000	0.00000000000000	0.00000000000000	9.95732500000000	0.00000000000000	0.00000000000000	0.61944900000000	0.00000000000000	
4.11665300000000	-67.62213600000000	777.57161399999995	55.35811800000000	-0.03825600000000	0.00000000000000	0.09327000000000	-4.83397900000000	21.52324400000000	4.32327800000000	0.00000000000000	0.00000000000000	0.00000000000000	0.00000000000000	9.97655300000000	0.00000000000000	0.00000000000000	0.81636700000000	0.00000000000000	
4.11832000000000	-68.60490100000000	776.07811500000003	55.31737500000000	-0.03950900000000	0.00000000000000	0.09324600000000	-5.76115300000000	27.85480100000000	5.32402900000000	0.17703300000000	0.00000000000000	-0.12502600000000	0.00000000000000	9.99825500000000	0.00000000000000	0.00000000000000	1.25030600000000	0.00000000000000	
4.11999900000000	-69.58554100000001	774.46320500000002	55.25413700000000	-0.04075400000000	0.00000000000000	0.09322100000000	-6.63094200000000	34.70506400000000	6.33213100000000	0.18529400000000	0.00000000000000	-0.12633000000000	0.00000000000000	10.02257800000000	0.00000000000000	0.00000000000000	1.58518700000000	0.00000000000000	
4.12165400000000	-70.56321300000000	772.72256500000003	55.16777400000000	-0.04199100000000	0.00000000000000	0.09319400000000	-7.40306800000000	41.95769900000000	7.31565200000000	0.19253800000000	0.00000000000000	-0.12744700000000	0.00000000000000	10.04965300000000	0.00000000000000	0.00000000000000	1.94072100000000	0.00000000000000	
4.12332800000000	-71.53700800000000	770.85184400000003	55.05769200000000	-0.04321900000000	0.00000000000000	0.09316600000000	-8.04163700000000	49.49526300000000	8.24483500000000	0.19897100000000	0.00000000000000	-0.12841500000000	0.00000000000000	10.07959800000000	0.00000000000000	0.00000000000000	2.30927100000000	0.00000000000000	
4.12499800000000	-72.50595800000001	768.84667500000000	54.92333900000000	-0.04443600000000	0.00000000000000	0.09313700000000	-8.51739500000000	57.20834900000000	9.09406700000000	0.20474700000000	0.00000000000000	-0.12926200000000	0.00000000000000	10.11251100000000	0.00000000000000	0.00000000000000	2.68352300000000	0.00000000000000	
4.12664600000000	-73.46903100000000	766.70268899999996	54.76420600000000	-0.04564300000000	0.00000000000000	0.09310600000000	-8.80919700000000	65.00294000000000	9.84328000000000	0.20998200000000	0.00000000000000	-0.13001200000000	0.00000000000000	10.14847500000000	0.00000000000000	0.00000000000000	3.05696800000000	0.00000000000000	
4.12831600000000	-74.42513300000000	764.41552200000001	54.57982700000000	-0.04683800000000	0.00000000000000	0.09307300000000	-8.90462900000000	72.80543800000000	10.47870300000000	0.21476600000000	0.00000000000000	-0.13068100000000	0.00000000000000	10.18755300000000	0.00000000000000	0.00000000000000	3.42425800000000	0.00000000000000	
4.12999500000000	-75.37311000000000	761.98083799999995	54.36978500000000	-0.04802000000000	0.00000000000000	0.09303900000000	-8.79982300000000	80.56520500000001	10.99300000000000	0.21917000000000	0.00000000000000	-0.13128200000000	0.00000000000000	10.22979100000000	0.00000000000000	0.00000000000000	3.78140300000000	0.00000000000000	
4.13165000000000	-76.31174500000000	759.39433899999995	54.13370800000000	-0.04918800000000	0.00000000000000	0.09300400000000	-8.49860700000000	88.25480100000000	11.38484400000000	0.22324800000000	0.00000000000000	-0.13182600000000	0.00000000000000	10.27521000000000	0.00000000000000	0.00000000000000	4.12583800000000	0.00000000000000	
4.13331700000000	-77.23976700000000	756.65177900000003	53.87127800000000	-0.05034200000000	0.00000000000000	0.09296600000000	-8.01117600000000	95.86826400000000	11.65808500000000	0.22704500000000	0.00000000000000	-0.13232100000000	0.00000000000000	10.32381500000000	0.00000000000000	0.00000000000000	4.45635300000000	0.00000000000000	
4.13498400000000	-78.15584300000000	753.74898099999996	53.58222600000000	-0.05148000000000	0.00000000000000	0.09292700000000	-7.35246900000000	103.41791900000000	11.82063400000000	0.23059800000000	0.00000000000000	-0.13277400000000	0.00000000000000	10.37558300000000	0.00000000000000	0.00000000000000	4.77292000000000	0.00000000000000	
4.13665400000000	-79.05858700000000	750.68185400000004	53.26633700000000	-0.05260300000000	0.00000000000000	0.09288600000000	-6.54043900000000	110.93024400000000	11.88320800000000	0.23393600000000	0.00000000000000	-0.13319100000000	0.00000000000000	10.43047400000000	0.00000000000000	0.00000000000000	5.07645700000000	0.00000000000000	
4.13831800000000	-79.94655899999999	747.44640500000003	52.92345000000000	-0.05370800000000	0.00000000000000	0.09284400000000	-5.59437500000000	118.44129100000001	11.85807000000000	0.23708200000000	0.00000000000000	-0.13357700000000	0.00000000000000	10.48842100000000	0.00000000000000	0.00000000000000	5.36854700000000	0.00000000000000	
4.13998500000000	-80.81827000000000	744.03875800000003	52.55346000000000	-0.05479700000000	0.00000000000000	0.09280000000000	-4.53341400000000	125.99212300000001	11.75785800000000	0.24005900000000	0.00000000000000	-0.13393500000000	0.00000000000000	10.54933600000000	0.00000000000000	0.00000000000000	5.65115800000000	0.00000000000000	
